<svg width="99" height="91" viewBox="0 0 99 91" fill="none" xmlns="http://www.w3.org/2000/svg">
<path d="M74.9295 27.0238C74.9295 41.0637 63.5158 52.45 49.4303 52.45C35.3449 52.45 23.9312 41.0637 23.9312 27.0238C23.9312 12.9839 35.3449 1.59766 49.4303 1.59766C63.5158 1.59766 74.9295 12.9839 74.9295 27.0238Z" stroke="#F24150" stroke-width="2"/>
<line x1="22.9905" y1="26.0455" x2="75.8856" y2="25.9572" stroke="#F24150" stroke-width="2"/>
<line x1="50.5027" y1="0.597656" x2="50.5027" y2="53.45" stroke="#F24150" stroke-width="2"/>
<path d="M66.0008 27.024C66.0008 17.9123 58.6144 10.5259 49.5027 10.5259" stroke="#F24150" stroke-width="2"/>
<line x1="51.2937" y1="27.0594" x2="67.6647" y2="43.7552" stroke="#F24150" stroke-width="2" stroke-linecap="square"/>
<path d="M26.5811 38.9268C28.7838 37.767 34.5446 36.1433 39.9658 38.9268C41.902 39.64 46.6077 40.6385 49.9412 38.9268" stroke="#F24150" stroke-width="2"/>
<line x1="40.5751" y1="2.64185" x2="40.5751" y2="27.024" stroke="#F24150" stroke-width="2"/>
<path d="M1.45469 74.792C1.45469 74.3333 1.58802 73.9707 1.85469 73.704C2.12135 73.4373 2.48402 73.304 2.94269 73.304H8.22269C8.29736 73.4213 8.36136 73.576 8.41469 73.768C8.47869 73.96 8.51069 74.1627 8.51069 74.376C8.51069 74.7813 8.42002 75.0693 8.23869 75.24C8.06802 75.4107 7.83869 75.496 7.55069 75.496H4.17469V76.984H7.77469C7.84935 77.1013 7.91336 77.256 7.96669 77.448C8.03069 77.6293 8.06269 77.8267 8.06269 78.04C8.06269 78.4453 7.97736 78.7333 7.80669 78.904C7.63602 79.0747 7.40669 79.16 7.11869 79.16H4.17469V80.84H8.28669C8.36135 80.9573 8.42535 81.112 8.47869 81.304C8.54269 81.496 8.57469 81.6987 8.57469 81.912C8.57469 82.3173 8.48402 82.6107 8.30269 82.792C8.13202 82.9627 7.90269 83.048 7.61469 83.048H2.94269C2.48402 83.048 2.12135 82.9147 1.85469 82.648C1.58802 82.3813 1.45469 82.0187 1.45469 81.56V74.792ZM22.0443 82.664C21.895 82.8133 21.6763 82.9253 21.3883 83C21.111 83.0853 20.775 83.128 20.3803 83.128C19.9856 83.128 19.6123 83.0693 19.2603 82.952C18.9083 82.8347 18.6203 82.552 18.3963 82.104L16.8123 78.872C16.6523 78.5413 16.5083 78.232 16.3803 77.944C16.2523 77.6453 16.1136 77.304 15.9643 76.92L15.8683 76.936C15.911 77.512 15.9323 78.0987 15.9323 78.696C15.943 79.2933 15.9483 79.88 15.9483 80.456V82.936C15.831 82.968 15.6496 83 15.4043 83.032C15.1696 83.064 14.935 83.08 14.7003 83.08C14.4656 83.08 14.2576 83.064 14.0763 83.032C13.895 83 13.7456 82.936 13.6283 82.84C13.511 82.744 13.4203 82.616 13.3563 82.456C13.2923 82.2853 13.2603 82.0667 13.2603 81.8V73.8C13.4096 73.5867 13.639 73.4267 13.9483 73.32C14.2576 73.2133 14.5883 73.16 14.9403 73.16C15.335 73.16 15.7083 73.224 16.0603 73.352C16.423 73.4693 16.711 73.7467 16.9243 74.184L18.5243 77.416C18.6843 77.7467 18.8283 78.0613 18.9563 78.36C19.0843 78.648 19.223 78.984 19.3723 79.368L19.4523 79.352C19.4096 78.776 19.383 78.2 19.3723 77.624C19.3616 77.048 19.3563 76.472 19.3563 75.896V73.304C19.4736 73.272 19.6496 73.24 19.8843 73.208C20.1296 73.176 20.3696 73.16 20.6043 73.16C21.0736 73.16 21.431 73.2453 21.6763 73.416C21.9216 73.576 22.0443 73.9173 22.0443 74.44V82.664ZM29.9117 79.144C29.4424 78.984 29.0157 78.824 28.6317 78.664C28.2477 78.4933 27.917 78.2907 27.6397 78.056C27.3624 77.8213 27.1437 77.544 26.9837 77.224C26.8344 76.8933 26.7597 76.4933 26.7597 76.024C26.7597 75.1173 27.1064 74.392 27.7997 73.848C28.5037 73.304 29.485 73.032 30.7437 73.032C31.2024 73.032 31.629 73.064 32.0237 73.128C32.4184 73.192 32.7544 73.2933 33.0317 73.432C33.3197 73.56 33.5437 73.7307 33.7037 73.944C33.8637 74.1467 33.9437 74.3867 33.9437 74.664C33.9437 74.9413 33.8797 75.1813 33.7517 75.384C33.6237 75.576 33.469 75.7413 33.2877 75.88C33.053 75.7307 32.7384 75.6027 32.3437 75.496C31.949 75.3787 31.517 75.32 31.0477 75.32C30.5677 75.32 30.2157 75.3893 29.9917 75.528C29.7677 75.656 29.6557 75.8213 29.6557 76.024C29.6557 76.184 29.725 76.3173 29.8637 76.424C30.0024 76.52 30.2104 76.6107 30.4877 76.696L31.3357 76.968C32.3384 77.288 33.1064 77.6987 33.6397 78.2C34.1837 78.6907 34.4557 79.3627 34.4557 80.216C34.4557 81.1227 34.0984 81.8587 33.3837 82.424C32.669 82.9787 31.6184 83.256 30.2317 83.256C29.741 83.256 29.2824 83.2133 28.8557 83.128C28.4397 83.0533 28.0717 82.9413 27.7517 82.792C27.4424 82.632 27.197 82.44 27.0157 82.216C26.845 81.9813 26.7597 81.7147 26.7597 81.416C26.7597 81.1067 26.8504 80.8453 27.0317 80.632C27.213 80.408 27.4104 80.2373 27.6237 80.12C27.9224 80.3547 28.285 80.5573 28.7117 80.728C29.149 80.8987 29.6237 80.984 30.1357 80.984C30.6584 80.984 31.0264 80.904 31.2397 80.744C31.453 80.584 31.5597 80.3973 31.5597 80.184C31.5597 79.9707 31.4744 79.8107 31.3037 79.704C31.133 79.5867 30.893 79.4747 30.5837 79.368L29.9117 79.144ZM39.0122 74.792C39.0122 74.3333 39.1455 73.9707 39.4122 73.704C39.6789 73.4373 40.0415 73.304 40.5002 73.304H45.7802C45.8549 73.4213 45.9189 73.576 45.9722 73.768C46.0362 73.96 46.0682 74.1627 46.0682 74.376C46.0682 74.7813 45.9775 75.0693 45.7962 75.24C45.6255 75.4107 45.3962 75.496 45.1082 75.496H41.7322V76.984H45.3322C45.4069 77.1013 45.4709 77.256 45.5242 77.448C45.5882 77.6293 45.6202 77.8267 45.6202 78.04C45.6202 78.4453 45.5349 78.7333 45.3642 78.904C45.1935 79.0747 44.9642 79.16 44.6762 79.16H41.7322V80.84H45.8442C45.9189 80.9573 45.9829 81.112 46.0362 81.304C46.1002 81.496 46.1322 81.6987 46.1322 81.912C46.1322 82.3173 46.0415 82.6107 45.8602 82.792C45.6895 82.9627 45.4602 83.048 45.1722 83.048H40.5002C40.0415 83.048 39.6789 82.9147 39.4122 82.648C39.1455 82.3813 39.0122 82.0187 39.0122 81.56V74.792ZM57.5843 80.616C57.4456 80.7333 57.2643 80.8293 57.0403 80.904C56.827 80.968 56.5763 81 56.2883 81C55.9043 81 55.5843 80.952 55.3283 80.856C55.083 80.76 54.923 80.5947 54.8483 80.36C54.5496 79.4213 54.3043 78.664 54.1123 78.088C53.9203 77.5013 53.771 76.9893 53.6643 76.552H53.5843C53.5523 77.1813 53.5256 77.7573 53.5043 78.28C53.4936 78.792 53.483 79.2933 53.4723 79.784C53.4723 80.2747 53.4616 80.7707 53.4403 81.272C53.4296 81.7733 53.4083 82.328 53.3763 82.936C53.2376 82.9893 53.0563 83.032 52.8323 83.064C52.6083 83.1067 52.3843 83.128 52.1603 83.128C51.691 83.128 51.323 83.0533 51.0563 82.904C50.8003 82.7547 50.6723 82.4827 50.6723 82.088L51.1363 73.928C51.2216 73.7893 51.4083 73.64 51.6963 73.48C51.9843 73.32 52.3896 73.24 52.9123 73.24C53.4776 73.24 53.9203 73.3307 54.2403 73.512C54.5603 73.6827 54.795 73.9653 54.9443 74.36C55.0403 74.616 55.1416 74.9093 55.2483 75.24C55.3656 75.5707 55.4776 75.912 55.5843 76.264C55.7016 76.616 55.8136 76.968 55.9203 77.32C56.027 77.6613 56.123 77.9707 56.2083 78.248H56.2883C56.5443 77.352 56.8003 76.488 57.0563 75.656C57.3123 74.8133 57.547 74.1093 57.7603 73.544C57.9203 73.4587 58.123 73.3893 58.3683 73.336C58.6243 73.272 58.907 73.24 59.2163 73.24C59.739 73.24 60.1656 73.32 60.4963 73.48C60.827 73.6293 61.019 73.848 61.0723 74.136C61.115 74.3493 61.1576 74.68 61.2003 75.128C61.2536 75.5653 61.307 76.0613 61.3603 76.616C61.4136 77.1707 61.467 77.7573 61.5203 78.376C61.5736 78.9947 61.6216 79.592 61.6643 80.168C61.7176 80.7333 61.7603 81.256 61.7923 81.736C61.8243 82.2053 61.8456 82.568 61.8563 82.824C61.675 82.9307 61.483 83.0053 61.2803 83.048C61.0883 83.1013 60.8376 83.128 60.5283 83.128C60.123 83.128 59.7816 83.0587 59.5043 82.92C59.227 82.7813 59.0776 82.5093 59.0563 82.104C58.9923 80.9413 58.9496 79.896 58.9283 78.968C58.9176 78.04 58.8963 77.2613 58.8643 76.632H58.7843C58.6776 77.048 58.523 77.5707 58.3203 78.2C58.1176 78.8293 57.8723 79.6347 57.5843 80.616ZM69.3903 81C69.5396 81.0427 69.7316 81.0747 69.9663 81.096C70.201 81.1067 70.425 81.112 70.6383 81.112C71.065 81.112 71.417 81.0267 71.6943 80.856C71.9823 80.6747 72.1263 80.3973 72.1263 80.024C72.1263 79.672 72.009 79.4213 71.7743 79.272C71.5396 79.1227 71.1823 79.048 70.7023 79.048H69.3903V81ZM69.3903 77.096H70.5583C71.017 77.096 71.3476 77.0107 71.5503 76.84C71.7636 76.6693 71.8703 76.4187 71.8703 76.088C71.8703 75.8 71.7476 75.5707 71.5023 75.4C71.2676 75.2293 70.9103 75.144 70.4303 75.144C70.2703 75.144 70.0836 75.1493 69.8703 75.16C69.6676 75.1707 69.5076 75.1867 69.3903 75.208V77.096ZM70.4303 83.256C70.249 83.256 70.0356 83.2507 69.7903 83.24C69.545 83.2293 69.289 83.208 69.0223 83.176C68.7663 83.144 68.5103 83.1013 68.2543 83.048C67.9983 83.0053 67.7636 82.9413 67.5503 82.856C66.9636 82.632 66.6703 82.2427 66.6703 81.688V74.216C66.6703 73.992 66.729 73.8213 66.8463 73.704C66.9743 73.576 67.145 73.4747 67.3583 73.4C67.721 73.272 68.1743 73.1813 68.7183 73.128C69.2623 73.064 69.8223 73.032 70.3983 73.032C71.7636 73.032 72.8143 73.2613 73.5503 73.72C74.2863 74.1787 74.6543 74.888 74.6543 75.848C74.6543 76.328 74.5156 76.744 74.2383 77.096C73.961 77.4373 73.5876 77.688 73.1183 77.848C73.6516 77.9973 74.0943 78.2693 74.4463 78.664C74.809 79.0587 74.9903 79.5547 74.9903 80.152C74.9903 81.208 74.5956 81.992 73.8063 82.504C73.0276 83.0053 71.9023 83.256 70.4303 83.256ZM81.1046 83.048C80.6459 83.048 80.2832 82.9147 80.0166 82.648C79.7499 82.3813 79.6166 82.0187 79.6166 81.56V73.288C79.7339 73.2667 79.9206 73.24 80.1766 73.208C80.4326 73.1653 80.6779 73.144 80.9126 73.144C81.1579 73.144 81.3712 73.1653 81.5526 73.208C81.7446 73.24 81.9046 73.304 82.0326 73.4C82.1606 73.496 82.2566 73.6293 82.3206 73.8C82.3846 73.9707 82.4166 74.1947 82.4166 74.472V80.792H86.0806C86.1552 80.9093 86.2246 81.0693 86.2886 81.272C86.3526 81.464 86.3846 81.6667 86.3846 81.88C86.3846 82.3067 86.2939 82.6107 86.1126 82.792C85.9312 82.9627 85.6912 83.048 85.3926 83.048H81.1046ZM90.8597 74.792C90.8597 74.3333 90.993 73.9707 91.2597 73.704C91.5264 73.4373 91.889 73.304 92.3477 73.304H97.6277C97.7024 73.4213 97.7664 73.576 97.8197 73.768C97.8837 73.96 97.9157 74.1627 97.9157 74.376C97.9157 74.7813 97.825 75.0693 97.6437 75.24C97.473 75.4107 97.2437 75.496 96.9557 75.496H93.5797V76.984H97.1797C97.2544 77.1013 97.3184 77.256 97.3717 77.448C97.4357 77.6293 97.4677 77.8267 97.4677 78.04C97.4677 78.4453 97.3824 78.7333 97.2117 78.904C97.041 79.0747 96.8117 79.16 96.5237 79.16H93.5797V80.84H97.6917C97.7664 80.9573 97.8304 81.112 97.8837 81.304C97.9477 81.496 97.9797 81.6987 97.9797 81.912C97.9797 82.3173 97.889 82.6107 97.7077 82.792C97.537 82.9627 97.3077 83.048 97.0197 83.048H92.3477C91.889 83.048 91.5264 82.9147 91.2597 82.648C90.993 82.3813 90.8597 82.0187 90.8597 81.56V74.792Z" fill="#4C4C4C"/>
</svg>
