<svg width="390" height="376" viewBox="0 0 390 376" fill="none" xmlns="http://www.w3.org/2000/svg">
<path d="M107.425 330.131C78.1022 328.866 54.5759 305.458 53.2965 276.33L107.425 276.33L107.425 330.131Z" fill="white" stroke="#F24150" stroke-width="5"/>
<path d="M251.636 183.978C251.636 215.089 226.271 240.333 194.952 240.333C163.634 240.333 138.269 215.089 138.269 183.978C138.269 152.867 163.634 127.624 194.952 127.624C226.271 127.624 251.636 152.867 251.636 183.978Z" fill="white" stroke="#F24150" stroke-width="5"/>
<line y1="-2.5" x2="118.367" y2="-2.5" transform="matrix(0.999999 -0.00166017 0.00167878 0.999999 135.769 183.978)" stroke="#F24150" stroke-width="5"/>
<line x1="197.452" y1="125.124" x2="197.452" y2="242.833" stroke="#F24150" stroke-width="5"/>
<path d="M231.942 183.88C231.942 163.565 215.381 147.096 194.952 147.096" stroke="#F24150" stroke-width="5"/>
<line x1="2.5" y1="-2.5" x2="54.1404" y2="-2.5" transform="matrix(0.702113 0.712065 -0.715967 0.698134 195.939 183.978)" stroke="#F24150" stroke-width="5" stroke-linecap="square"/>
<path d="M143.857 210.529C148.768 207.962 161.612 204.368 173.698 210.529C178.015 212.107 188.506 214.317 195.938 210.529" stroke="#F24150" stroke-width="5"/>
<line x1="175.357" y1="129.636" x2="175.357" y2="183.782" stroke="#F24150" stroke-width="5"/>
<path d="M53.2955 93.3926C54.5749 64.264 78.1013 40.8566 107.424 39.5917L107.424 93.3926L53.2955 93.3926Z" fill="white" stroke="#F24150" stroke-width="5"/>
<line x1="90.9214" y1="41.7466" x2="90.9214" y2="95.8929" stroke="#F24150" stroke-width="5"/>
<path d="M340.751 275.152C339.472 304.281 315.945 327.688 286.622 328.953L286.622 275.152L340.751 275.152Z" fill="white" stroke="#F24150" stroke-width="5"/>
<path d="M286.622 40.3761C315.945 41.6409 339.472 65.0484 340.751 94.1769H286.622V40.3761Z" fill="white" stroke="#F24150" stroke-width="5"/>
<path d="M321.112 96.5791C321.112 76.2638 304.551 59.7949 284.122 59.7949" stroke="#F24150" stroke-width="5"/>
<line x1="2.5" y1="-2.5" x2="54.1404" y2="-2.5" transform="matrix(0.702113 0.712065 -0.715967 0.698134 284.319 274.614)" stroke="#F24150" stroke-width="5" stroke-linecap="square"/>
<path d="M55.6729 295.476C60.5838 292.909 73.4275 289.316 85.5142 295.476C89.8309 297.055 100.322 299.264 107.754 295.476" stroke="#F24150" stroke-width="5"/>
<path d="M361.323 237.727C361.32 239.108 362.438 240.229 363.818 240.232L386.318 240.271C387.699 240.273 388.82 239.156 388.823 237.775C388.825 236.394 387.708 235.273 386.327 235.271L366.327 235.236L366.362 215.236C366.364 213.855 365.247 212.734 363.866 212.732C362.485 212.729 361.364 213.847 361.362 215.227L361.323 237.727ZM362.007 132.138C370.45 141.063 380.608 157.033 383.561 175.748C386.491 194.317 382.363 215.726 362.058 235.961L365.587 239.502C387.086 218.079 391.667 195.038 388.5 174.969C385.357 155.046 374.614 138.189 365.639 128.702L362.007 132.138Z" fill="#1A4C6C"/>
<path d="M28.5815 130.425C28.5839 129.044 27.4666 127.923 26.0859 127.92L3.58591 127.881C2.2052 127.879 1.08398 128.996 1.08159 130.377C1.0792 131.758 2.19655 132.879 3.57726 132.881L23.5772 132.916L23.5426 152.916C23.5403 154.297 24.6576 155.418 26.0383 155.42C27.419 155.423 28.5402 154.305 28.5426 152.925L28.5815 130.425ZM27.8977 236.014C19.4547 227.089 9.29606 211.119 6.34315 192.404C3.41336 173.835 7.54137 152.426 27.8463 132.191L24.3168 128.649C2.81872 150.073 -1.76223 173.114 1.40425 193.183C4.5476 213.105 15.2905 229.962 24.2654 239.45L27.8977 236.014Z" fill="#1A4C6C"/>
<path d="M140.987 347.547C139.606 347.552 138.491 348.676 138.496 350.056L138.583 372.556C138.588 373.937 139.712 375.052 141.092 375.047C142.473 375.041 143.588 373.918 143.583 372.537L143.506 352.537L163.506 352.46C164.886 352.455 166.001 351.331 165.996 349.951C165.991 348.57 164.867 347.455 163.487 347.46L140.987 347.547ZM247.2 348.221C238.225 356.617 222.162 366.723 203.333 369.661C184.645 372.577 163.107 368.466 142.757 348.272L139.235 351.821C160.778 373.199 183.937 377.748 204.103 374.601C224.128 371.477 241.075 360.798 250.616 351.873L247.2 348.221Z" fill="#1A4C6C"/>
<path d="M248.918 28.4531C250.298 28.4478 251.413 27.3242 251.408 25.9435L251.321 3.4437C251.316 2.063 250.193 0.948016 248.812 0.953324C247.431 0.95863 246.316 2.08221 246.322 3.46291L246.398 23.4628L226.399 23.5396C225.018 23.5449 223.903 24.6685 223.908 26.0492C223.913 27.4299 225.037 28.5449 226.418 28.5396L248.918 28.4531ZM142.704 27.7788C151.679 19.3829 167.742 9.27682 186.572 6.33882C205.259 3.42299 226.798 7.53425 247.147 27.7277L250.669 24.1786C229.127 2.80135 205.967 -1.74795 185.801 1.3986C165.777 4.52299 148.829 15.2022 139.289 24.1274L142.704 27.7788Z" fill="#1A4C6C"/>
</svg>
